<mxfile host="app.diagrams.net" modified="2023-10-09T11:05:40.022Z" agent="Mozilla/5.0 (Windows NT 10.0; Win64; x64) AppleWebKit/537.36 (KHTML, like Gecko) Chrome/117.0.0.0 Safari/537.36" etag="XR9cXZh9E6JNkrf1belP" version="22.0.4" type="github">
  <diagram id="C5RBs43oDa-KdzZeNtuy" name="Page-1">
    <mxGraphModel dx="1075" dy="552" grid="1" gridSize="10" guides="1" tooltips="1" connect="1" arrows="1" fold="1" page="1" pageScale="1" pageWidth="827" pageHeight="1169" math="0" shadow="0">
      <root>
        <mxCell id="WIyWlLk6GJQsqaUBKTNV-0" />
        <mxCell id="WIyWlLk6GJQsqaUBKTNV-1" parent="WIyWlLk6GJQsqaUBKTNV-0" />
        <mxCell id="Usuaam1jHYne9WYLFy0S-9" style="edgeStyle=orthogonalEdgeStyle;rounded=0;orthogonalLoop=1;jettySize=auto;html=1;entryX=0.5;entryY=0;entryDx=0;entryDy=0;" edge="1" parent="WIyWlLk6GJQsqaUBKTNV-1" source="WIyWlLk6GJQsqaUBKTNV-3" target="Usuaam1jHYne9WYLFy0S-0">
          <mxGeometry relative="1" as="geometry">
            <mxPoint x="367.5" y="130" as="targetPoint" />
          </mxGeometry>
        </mxCell>
        <mxCell id="WIyWlLk6GJQsqaUBKTNV-3" value="start" style="rounded=1;whiteSpace=wrap;html=1;fontSize=12;glass=0;strokeWidth=1;shadow=0;" parent="WIyWlLk6GJQsqaUBKTNV-1" vertex="1">
          <mxGeometry x="306.5" y="70" width="120" height="40" as="geometry" />
        </mxCell>
        <mxCell id="Usuaam1jHYne9WYLFy0S-22" value="" style="edgeStyle=orthogonalEdgeStyle;rounded=0;orthogonalLoop=1;jettySize=auto;html=1;" edge="1" parent="WIyWlLk6GJQsqaUBKTNV-1" source="WIyWlLk6GJQsqaUBKTNV-6" target="Usuaam1jHYne9WYLFy0S-17">
          <mxGeometry relative="1" as="geometry" />
        </mxCell>
        <mxCell id="Usuaam1jHYne9WYLFy0S-29" value="YES" style="edgeLabel;html=1;align=center;verticalAlign=middle;resizable=0;points=[];" vertex="1" connectable="0" parent="Usuaam1jHYne9WYLFy0S-22">
          <mxGeometry x="-0.2554" y="1" relative="1" as="geometry">
            <mxPoint as="offset" />
          </mxGeometry>
        </mxCell>
        <mxCell id="Usuaam1jHYne9WYLFy0S-26" value="" style="edgeStyle=orthogonalEdgeStyle;rounded=0;orthogonalLoop=1;jettySize=auto;html=1;" edge="1" parent="WIyWlLk6GJQsqaUBKTNV-1" source="WIyWlLk6GJQsqaUBKTNV-6" target="WIyWlLk6GJQsqaUBKTNV-7">
          <mxGeometry relative="1" as="geometry" />
        </mxCell>
        <mxCell id="Usuaam1jHYne9WYLFy0S-28" value="NO" style="edgeLabel;html=1;align=center;verticalAlign=middle;resizable=0;points=[];" vertex="1" connectable="0" parent="Usuaam1jHYne9WYLFy0S-26">
          <mxGeometry x="-0.1943" y="-2" relative="1" as="geometry">
            <mxPoint as="offset" />
          </mxGeometry>
        </mxCell>
        <mxCell id="WIyWlLk6GJQsqaUBKTNV-6" value="snmpinfo exist?" style="rhombus;whiteSpace=wrap;html=1;shadow=0;fontFamily=Helvetica;fontSize=12;align=center;strokeWidth=1;spacing=6;spacingTop=-4;" parent="WIyWlLk6GJQsqaUBKTNV-1" vertex="1">
          <mxGeometry x="290" y="469" width="155" height="60" as="geometry" />
        </mxCell>
        <mxCell id="Usuaam1jHYne9WYLFy0S-49" style="edgeStyle=orthogonalEdgeStyle;rounded=0;orthogonalLoop=1;jettySize=auto;html=1;" edge="1" parent="WIyWlLk6GJQsqaUBKTNV-1" source="WIyWlLk6GJQsqaUBKTNV-7">
          <mxGeometry relative="1" as="geometry">
            <mxPoint x="580" y="879" as="targetPoint" />
            <Array as="points">
              <mxPoint x="690" y="499" />
              <mxPoint x="690" y="879" />
            </Array>
          </mxGeometry>
        </mxCell>
        <mxCell id="WIyWlLk6GJQsqaUBKTNV-7" value="create file,set default password" style="rounded=1;whiteSpace=wrap;html=1;fontSize=12;glass=0;strokeWidth=1;shadow=0;" parent="WIyWlLk6GJQsqaUBKTNV-1" vertex="1">
          <mxGeometry x="507.5" y="479" width="120" height="40" as="geometry" />
        </mxCell>
        <mxCell id="Usuaam1jHYne9WYLFy0S-10" style="edgeStyle=orthogonalEdgeStyle;rounded=0;orthogonalLoop=1;jettySize=auto;html=1;entryX=0;entryY=0.5;entryDx=0;entryDy=0;" edge="1" parent="WIyWlLk6GJQsqaUBKTNV-1" source="Usuaam1jHYne9WYLFy0S-0" target="Usuaam1jHYne9WYLFy0S-2">
          <mxGeometry relative="1" as="geometry" />
        </mxCell>
        <mxCell id="Usuaam1jHYne9WYLFy0S-24" value="NO" style="edgeLabel;html=1;align=center;verticalAlign=middle;resizable=0;points=[];" vertex="1" connectable="0" parent="Usuaam1jHYne9WYLFy0S-10">
          <mxGeometry x="-0.0369" y="-2" relative="1" as="geometry">
            <mxPoint as="offset" />
          </mxGeometry>
        </mxCell>
        <mxCell id="Usuaam1jHYne9WYLFy0S-64" value="" style="edgeStyle=orthogonalEdgeStyle;rounded=0;orthogonalLoop=1;jettySize=auto;html=1;" edge="1" parent="WIyWlLk6GJQsqaUBKTNV-1" source="Usuaam1jHYne9WYLFy0S-0" target="Usuaam1jHYne9WYLFy0S-50">
          <mxGeometry relative="1" as="geometry" />
        </mxCell>
        <mxCell id="Usuaam1jHYne9WYLFy0S-65" value="YES" style="edgeLabel;html=1;align=center;verticalAlign=middle;resizable=0;points=[];" vertex="1" connectable="0" parent="Usuaam1jHYne9WYLFy0S-64">
          <mxGeometry x="-0.2702" y="-1" relative="1" as="geometry">
            <mxPoint as="offset" />
          </mxGeometry>
        </mxCell>
        <mxCell id="Usuaam1jHYne9WYLFy0S-0" value="args.length = 2?" style="rhombus;whiteSpace=wrap;html=1;shadow=0;fontFamily=Helvetica;fontSize=12;align=center;strokeWidth=1;spacing=6;spacingTop=-4;" vertex="1" parent="WIyWlLk6GJQsqaUBKTNV-1">
          <mxGeometry x="291.5" y="150" width="150" height="60" as="geometry" />
        </mxCell>
        <mxCell id="Usuaam1jHYne9WYLFy0S-2" value="print args error, System.exit" style="rounded=1;whiteSpace=wrap;html=1;fontSize=12;glass=0;strokeWidth=1;shadow=0;" vertex="1" parent="WIyWlLk6GJQsqaUBKTNV-1">
          <mxGeometry x="507.5" y="160" width="120" height="40" as="geometry" />
        </mxCell>
        <mxCell id="Usuaam1jHYne9WYLFy0S-21" value="" style="edgeStyle=orthogonalEdgeStyle;rounded=0;orthogonalLoop=1;jettySize=auto;html=1;" edge="1" parent="WIyWlLk6GJQsqaUBKTNV-1" source="Usuaam1jHYne9WYLFy0S-17" target="Usuaam1jHYne9WYLFy0S-20">
          <mxGeometry relative="1" as="geometry" />
        </mxCell>
        <mxCell id="Usuaam1jHYne9WYLFy0S-27" value="NO" style="edgeLabel;html=1;align=center;verticalAlign=middle;resizable=0;points=[];" vertex="1" connectable="0" parent="Usuaam1jHYne9WYLFy0S-21">
          <mxGeometry x="-0.1194" y="-2" relative="1" as="geometry">
            <mxPoint as="offset" />
          </mxGeometry>
        </mxCell>
        <mxCell id="Usuaam1jHYne9WYLFy0S-30" value="" style="edgeStyle=orthogonalEdgeStyle;rounded=0;orthogonalLoop=1;jettySize=auto;html=1;" edge="1" parent="WIyWlLk6GJQsqaUBKTNV-1" source="Usuaam1jHYne9WYLFy0S-17" target="Usuaam1jHYne9WYLFy0S-23">
          <mxGeometry relative="1" as="geometry" />
        </mxCell>
        <mxCell id="Usuaam1jHYne9WYLFy0S-17" value="isAdmin()?" style="rhombus;whiteSpace=wrap;html=1;shadow=0;fontFamily=Helvetica;fontSize=12;align=center;strokeWidth=1;spacing=6;spacingTop=-4;" vertex="1" parent="WIyWlLk6GJQsqaUBKTNV-1">
          <mxGeometry x="290" y="569" width="155" height="60" as="geometry" />
        </mxCell>
        <mxCell id="Usuaam1jHYne9WYLFy0S-20" value="KAIF24204-E, System.exit" style="rounded=1;whiteSpace=wrap;html=1;fontSize=12;glass=0;strokeWidth=1;shadow=0;" vertex="1" parent="WIyWlLk6GJQsqaUBKTNV-1">
          <mxGeometry x="507.5" y="579" width="120" height="40" as="geometry" />
        </mxCell>
        <mxCell id="Usuaam1jHYne9WYLFy0S-34" value="" style="edgeStyle=orthogonalEdgeStyle;rounded=0;orthogonalLoop=1;jettySize=auto;html=1;" edge="1" parent="WIyWlLk6GJQsqaUBKTNV-1" source="Usuaam1jHYne9WYLFy0S-23">
          <mxGeometry relative="1" as="geometry">
            <mxPoint x="367.5" y="769" as="targetPoint" />
          </mxGeometry>
        </mxCell>
        <mxCell id="Usuaam1jHYne9WYLFy0S-42" value="line = 2" style="edgeLabel;html=1;align=center;verticalAlign=middle;resizable=0;points=[];" vertex="1" connectable="0" parent="Usuaam1jHYne9WYLFy0S-34">
          <mxGeometry x="-0.368" y="1" relative="1" as="geometry">
            <mxPoint as="offset" />
          </mxGeometry>
        </mxCell>
        <mxCell id="Usuaam1jHYne9WYLFy0S-35" value="" style="edgeStyle=orthogonalEdgeStyle;rounded=0;orthogonalLoop=1;jettySize=auto;html=1;" edge="1" parent="WIyWlLk6GJQsqaUBKTNV-1" source="Usuaam1jHYne9WYLFy0S-23" target="Usuaam1jHYne9WYLFy0S-32">
          <mxGeometry relative="1" as="geometry" />
        </mxCell>
        <mxCell id="Usuaam1jHYne9WYLFy0S-36" value="line = 0" style="edgeLabel;html=1;align=center;verticalAlign=middle;resizable=0;points=[];" vertex="1" connectable="0" parent="Usuaam1jHYne9WYLFy0S-35">
          <mxGeometry x="-0.08" y="-4" relative="1" as="geometry">
            <mxPoint as="offset" />
          </mxGeometry>
        </mxCell>
        <mxCell id="Usuaam1jHYne9WYLFy0S-38" value="" style="edgeStyle=orthogonalEdgeStyle;rounded=0;orthogonalLoop=1;jettySize=auto;html=1;" edge="1" parent="WIyWlLk6GJQsqaUBKTNV-1" source="Usuaam1jHYne9WYLFy0S-23" target="Usuaam1jHYne9WYLFy0S-37">
          <mxGeometry relative="1" as="geometry" />
        </mxCell>
        <mxCell id="Usuaam1jHYne9WYLFy0S-39" value="line = 1" style="edgeLabel;html=1;align=center;verticalAlign=middle;resizable=0;points=[];" vertex="1" connectable="0" parent="Usuaam1jHYne9WYLFy0S-38">
          <mxGeometry x="-0.1104" relative="1" as="geometry">
            <mxPoint as="offset" />
          </mxGeometry>
        </mxCell>
        <mxCell id="Usuaam1jHYne9WYLFy0S-23" value="snmpinfo line = ?" style="rhombus;whiteSpace=wrap;html=1;shadow=0;fontFamily=Helvetica;fontSize=12;align=center;strokeWidth=1;spacing=6;spacingTop=-4;" vertex="1" parent="WIyWlLk6GJQsqaUBKTNV-1">
          <mxGeometry x="290" y="669" width="155" height="60" as="geometry" />
        </mxCell>
        <mxCell id="Usuaam1jHYne9WYLFy0S-47" style="edgeStyle=orthogonalEdgeStyle;rounded=0;orthogonalLoop=1;jettySize=auto;html=1;entryX=0;entryY=0.5;entryDx=0;entryDy=0;" edge="1" parent="WIyWlLk6GJQsqaUBKTNV-1" source="Usuaam1jHYne9WYLFy0S-32" target="Usuaam1jHYne9WYLFy0S-43">
          <mxGeometry relative="1" as="geometry">
            <Array as="points">
              <mxPoint x="160" y="879" />
            </Array>
          </mxGeometry>
        </mxCell>
        <mxCell id="Usuaam1jHYne9WYLFy0S-32" value="Set default password(add @line1)" style="rounded=1;whiteSpace=wrap;html=1;fontSize=12;glass=0;strokeWidth=1;shadow=0;" vertex="1" parent="WIyWlLk6GJQsqaUBKTNV-1">
          <mxGeometry x="90" y="679" width="130" height="40" as="geometry" />
        </mxCell>
        <mxCell id="Usuaam1jHYne9WYLFy0S-48" style="edgeStyle=orthogonalEdgeStyle;rounded=0;orthogonalLoop=1;jettySize=auto;html=1;entryX=1;entryY=0.5;entryDx=0;entryDy=0;" edge="1" parent="WIyWlLk6GJQsqaUBKTNV-1" source="Usuaam1jHYne9WYLFy0S-37" target="Usuaam1jHYne9WYLFy0S-43">
          <mxGeometry relative="1" as="geometry">
            <Array as="points">
              <mxPoint x="580" y="879" />
            </Array>
          </mxGeometry>
        </mxCell>
        <mxCell id="Usuaam1jHYne9WYLFy0S-37" value="append customer password(add @line2)" style="rounded=1;whiteSpace=wrap;html=1;fontSize=12;glass=0;strokeWidth=1;shadow=0;" vertex="1" parent="WIyWlLk6GJQsqaUBKTNV-1">
          <mxGeometry x="507.5" y="679" width="132.5" height="40" as="geometry" />
        </mxCell>
        <mxCell id="Usuaam1jHYne9WYLFy0S-44" value="" style="edgeStyle=orthogonalEdgeStyle;rounded=0;orthogonalLoop=1;jettySize=auto;html=1;" edge="1" parent="WIyWlLk6GJQsqaUBKTNV-1" source="Usuaam1jHYne9WYLFy0S-41" target="Usuaam1jHYne9WYLFy0S-43">
          <mxGeometry relative="1" as="geometry" />
        </mxCell>
        <mxCell id="Usuaam1jHYne9WYLFy0S-41" value="update customer password(modify line2)" style="rounded=1;whiteSpace=wrap;html=1;fontSize=12;glass=0;strokeWidth=1;shadow=0;" vertex="1" parent="WIyWlLk6GJQsqaUBKTNV-1">
          <mxGeometry x="301.25" y="769" width="132.5" height="40" as="geometry" />
        </mxCell>
        <mxCell id="Usuaam1jHYne9WYLFy0S-46" value="" style="edgeStyle=orthogonalEdgeStyle;rounded=0;orthogonalLoop=1;jettySize=auto;html=1;" edge="1" parent="WIyWlLk6GJQsqaUBKTNV-1" source="Usuaam1jHYne9WYLFy0S-43" target="Usuaam1jHYne9WYLFy0S-45">
          <mxGeometry relative="1" as="geometry" />
        </mxCell>
        <mxCell id="Usuaam1jHYne9WYLFy0S-43" value="decode for check" style="rounded=1;whiteSpace=wrap;html=1;fontSize=12;glass=0;strokeWidth=1;shadow=0;" vertex="1" parent="WIyWlLk6GJQsqaUBKTNV-1">
          <mxGeometry x="301.25" y="859" width="132.5" height="40" as="geometry" />
        </mxCell>
        <mxCell id="Usuaam1jHYne9WYLFy0S-45" value="end" style="rounded=1;whiteSpace=wrap;html=1;fontSize=12;glass=0;strokeWidth=1;shadow=0;" vertex="1" parent="WIyWlLk6GJQsqaUBKTNV-1">
          <mxGeometry x="301.25" y="959" width="132.5" height="40" as="geometry" />
        </mxCell>
        <mxCell id="Usuaam1jHYne9WYLFy0S-52" value="" style="edgeStyle=orthogonalEdgeStyle;rounded=0;orthogonalLoop=1;jettySize=auto;html=1;" edge="1" parent="WIyWlLk6GJQsqaUBKTNV-1" source="Usuaam1jHYne9WYLFy0S-50" target="Usuaam1jHYne9WYLFy0S-51">
          <mxGeometry relative="1" as="geometry" />
        </mxCell>
        <mxCell id="Usuaam1jHYne9WYLFy0S-53" value="NO" style="edgeLabel;html=1;align=center;verticalAlign=middle;resizable=0;points=[];" vertex="1" connectable="0" parent="Usuaam1jHYne9WYLFy0S-52">
          <mxGeometry x="-0.1424" y="-3" relative="1" as="geometry">
            <mxPoint as="offset" />
          </mxGeometry>
        </mxCell>
        <mxCell id="Usuaam1jHYne9WYLFy0S-62" value="" style="edgeStyle=orthogonalEdgeStyle;rounded=0;orthogonalLoop=1;jettySize=auto;html=1;" edge="1" parent="WIyWlLk6GJQsqaUBKTNV-1" source="Usuaam1jHYne9WYLFy0S-50" target="Usuaam1jHYne9WYLFy0S-54">
          <mxGeometry relative="1" as="geometry" />
        </mxCell>
        <mxCell id="Usuaam1jHYne9WYLFy0S-63" value="YES" style="edgeLabel;html=1;align=center;verticalAlign=middle;resizable=0;points=[];" vertex="1" connectable="0" parent="Usuaam1jHYne9WYLFy0S-62">
          <mxGeometry x="-0.2623" relative="1" as="geometry">
            <mxPoint as="offset" />
          </mxGeometry>
        </mxCell>
        <mxCell id="Usuaam1jHYne9WYLFy0S-50" value="key &amp;gt;= 8 and key &amp;lt;= 64" style="rhombus;whiteSpace=wrap;html=1;shadow=0;fontFamily=Helvetica;fontSize=12;align=center;strokeWidth=1;spacing=6;spacingTop=-4;" vertex="1" parent="WIyWlLk6GJQsqaUBKTNV-1">
          <mxGeometry x="289" y="257" width="155" height="60" as="geometry" />
        </mxCell>
        <mxCell id="Usuaam1jHYne9WYLFy0S-51" value="KAIF24203-E, System.exit" style="rounded=1;whiteSpace=wrap;html=1;fontSize=12;glass=0;strokeWidth=1;shadow=0;" vertex="1" parent="WIyWlLk6GJQsqaUBKTNV-1">
          <mxGeometry x="507.5" y="268" width="120" height="40" as="geometry" />
        </mxCell>
        <mxCell id="Usuaam1jHYne9WYLFy0S-57" value="" style="edgeStyle=orthogonalEdgeStyle;rounded=0;orthogonalLoop=1;jettySize=auto;html=1;" edge="1" parent="WIyWlLk6GJQsqaUBKTNV-1" source="Usuaam1jHYne9WYLFy0S-54" target="Usuaam1jHYne9WYLFy0S-55">
          <mxGeometry relative="1" as="geometry" />
        </mxCell>
        <mxCell id="Usuaam1jHYne9WYLFy0S-60" value="NO" style="edgeLabel;html=1;align=center;verticalAlign=middle;resizable=0;points=[];" vertex="1" connectable="0" parent="Usuaam1jHYne9WYLFy0S-57">
          <mxGeometry x="-0.2305" y="1" relative="1" as="geometry">
            <mxPoint as="offset" />
          </mxGeometry>
        </mxCell>
        <mxCell id="Usuaam1jHYne9WYLFy0S-58" value="" style="edgeStyle=orthogonalEdgeStyle;rounded=0;orthogonalLoop=1;jettySize=auto;html=1;" edge="1" parent="WIyWlLk6GJQsqaUBKTNV-1" source="Usuaam1jHYne9WYLFy0S-54" target="WIyWlLk6GJQsqaUBKTNV-6">
          <mxGeometry relative="1" as="geometry" />
        </mxCell>
        <mxCell id="Usuaam1jHYne9WYLFy0S-59" value="YES" style="edgeLabel;html=1;align=center;verticalAlign=middle;resizable=0;points=[];" vertex="1" connectable="0" parent="Usuaam1jHYne9WYLFy0S-58">
          <mxGeometry x="-0.0007" relative="1" as="geometry">
            <mxPoint as="offset" />
          </mxGeometry>
        </mxCell>
        <mxCell id="Usuaam1jHYne9WYLFy0S-54" value="key matches(A-Za-z0-9...)" style="rhombus;whiteSpace=wrap;html=1;shadow=0;fontFamily=Helvetica;fontSize=12;align=center;strokeWidth=1;spacing=6;spacingTop=-4;" vertex="1" parent="WIyWlLk6GJQsqaUBKTNV-1">
          <mxGeometry x="273.25" y="361" width="186.75" height="60" as="geometry" />
        </mxCell>
        <mxCell id="Usuaam1jHYne9WYLFy0S-55" value="KAIF24203-E, System.exit" style="rounded=1;whiteSpace=wrap;html=1;fontSize=12;glass=0;strokeWidth=1;shadow=0;" vertex="1" parent="WIyWlLk6GJQsqaUBKTNV-1">
          <mxGeometry x="520" y="371" width="110" height="40" as="geometry" />
        </mxCell>
      </root>
    </mxGraphModel>
  </diagram>
</mxfile>
